<svg width="24" height="24" viewBox="0 0 24 24" fill="none" xmlns="http://www.w3.org/2000/svg">
<path d="M6.23438 20.625C5.94657 20.6245 5.66387 20.549 5.41406 20.4061C4.85156 20.0873 4.50188 19.4686 4.50188 18.7969V5.20312C4.50188 4.52953 4.85156 3.91266 5.41406 3.59391C5.66982 3.44692 5.96035 3.37134 6.25531 3.37505C6.55027 3.37876 6.83881 3.46163 7.09078 3.615L18.7088 10.5694C18.9509 10.7212 19.1505 10.932 19.2888 11.1821C19.4272 11.4322 19.4998 11.7133 19.4998 11.9991C19.4998 12.2849 19.4272 12.566 19.2888 12.816C19.1505 13.0661 18.9509 13.2769 18.7088 13.4288L7.08891 20.385C6.83105 20.5409 6.5357 20.6238 6.23438 20.625Z" fill="#1E90FF"/>
</svg>
