<svg width="24" height="24" viewBox="0 0 24 24" fill="none" xmlns="http://www.w3.org/2000/svg">
<path d="M22.5605 10.7564L13.7072 5.45953C13.4882 5.32626 13.2374 5.25426 12.981 5.25105C12.7247 5.24783 12.4721 5.31352 12.2498 5.44125C12.0086 5.5817 11.8089 5.78349 11.6709 6.02611C11.5329 6.26873 11.4616 6.54355 11.4642 6.82266V10.5281L2.99296 5.45812C2.77394 5.32486 2.52315 5.25286 2.26679 5.24964C2.01043 5.24642 1.75792 5.31211 1.53562 5.43984C1.29442 5.5803 1.09469 5.78208 0.956705 6.02471C0.818722 6.26733 0.747405 6.54215 0.749996 6.82125V17.1806C0.747322 17.4598 0.8186 17.7347 0.956587 17.9774C1.09457 18.2201 1.29435 18.422 1.53562 18.5625C1.75792 18.6902 2.01043 18.7559 2.26679 18.7527C2.52315 18.7495 2.77394 18.6775 2.99296 18.5442L11.4642 13.4719V17.1787C11.4612 17.4582 11.5323 17.7335 11.6703 17.9766C11.8083 18.2197 12.0083 18.4218 12.2498 18.5625C12.4721 18.6902 12.7247 18.7559 12.981 18.7527C13.2374 18.7495 13.4882 18.6775 13.7072 18.5442L22.5605 13.2473C22.7709 13.1155 22.9445 12.9323 23.0647 12.7151C23.185 12.4978 23.2481 12.2535 23.2481 12.0052C23.2481 11.7568 23.185 11.5125 23.0647 11.2952C22.9445 11.078 22.7709 10.8948 22.5605 10.763V10.7564Z" fill="#1E90FF"/>
</svg>
