<svg width="24" height="24" viewBox="0 0 24 24" fill="none" xmlns="http://www.w3.org/2000/svg">
<path d="M1.43953 10.7564L10.2928 5.45953C10.5118 5.32626 10.7626 5.25426 11.019 5.25105C11.2753 5.24783 11.5279 5.31352 11.7502 5.44125C11.9914 5.5817 12.1911 5.78349 12.3291 6.02611C12.4671 6.26873 12.5384 6.54355 12.5358 6.82266V10.5281L21.007 5.45812C21.226 5.32486 21.4768 5.25286 21.7332 5.24964C21.9896 5.24642 22.2421 5.31211 22.4644 5.43984C22.7056 5.5803 22.9053 5.78208 23.0433 6.02471C23.1813 6.26733 23.2526 6.54215 23.25 6.82125V17.1806C23.2527 17.4598 23.1815 17.7347 23.0435 17.9775C22.9055 18.2202 22.7057 18.422 22.4644 18.5625C22.2421 18.6902 21.9896 18.7559 21.7332 18.7527C21.4768 18.7495 21.226 18.6775 21.007 18.5442L12.5358 13.4719V17.1787C12.5388 17.4583 12.4677 17.7336 12.3297 17.9767C12.1917 18.2197 11.9917 18.4219 11.7502 18.5625C11.5279 18.6902 11.2753 18.7559 11.019 18.7527C10.7626 18.7495 10.5118 18.6775 10.2928 18.5442L1.43953 13.2473C1.22906 13.1155 1.05554 12.9323 0.935262 12.7151C0.814979 12.4978 0.751877 12.2535 0.751877 12.0052C0.751877 11.7568 0.814979 11.5125 0.935262 11.2952C1.05554 11.078 1.22906 10.8948 1.43953 10.763V10.7564Z" fill="#1E90FF"/>
</svg>
