<svg width="512" height="512" viewBox="0 0 512 512" fill="none" xmlns="http://www.w3.org/2000/svg">
<path d="M448 256C448 150 362 64 256 64C150 64 64 150 64 256C64 362 150 448 256 448C362 448 448 362 448 256Z" stroke="white" stroke-width="32" stroke-miterlimit="10"/>
<path d="M216.32 334.44L330.77 265.3C332.365 264.328 333.684 262.962 334.599 261.333C335.514 259.705 335.994 257.868 335.994 256C335.994 254.132 335.514 252.295 334.599 250.667C333.684 249.038 332.365 247.672 330.77 246.7L216.32 177.56C214.68 176.577 212.807 176.048 210.895 176.028C208.983 176.008 207.099 176.496 205.438 177.444C203.777 178.391 202.398 179.764 201.442 181.42C200.487 183.077 199.989 184.958 200 186.87V325.13C199.989 327.042 200.487 328.923 201.442 330.58C202.398 332.236 203.777 333.609 205.438 334.556C207.099 335.504 208.983 335.992 210.895 335.972C212.807 335.952 214.68 335.423 216.32 334.44Z" fill="white"/>
</svg>
