<svg width="24" height="24" viewBox="0 0 24 24" fill="none" xmlns="http://www.w3.org/2000/svg">
<path d="M10.875 19.5C10.6354 19.5 10.402 19.4231 10.2094 19.2806C10.1987 19.2732 10.1883 19.2652 10.1784 19.2567L5.895 15.75H2.625C2.32663 15.75 2.04048 15.6315 1.8295 15.4205C1.61853 15.2095 1.5 14.9234 1.5 14.625V9.375C1.5 9.07663 1.61853 8.79048 1.8295 8.5795C2.04048 8.36853 2.32663 8.25 2.625 8.25H5.89453L10.1775 4.74328C10.1874 4.7348 10.1977 4.72682 10.2084 4.71937C10.376 4.59615 10.5744 4.52178 10.7817 4.50452C10.9889 4.48726 11.1969 4.5278 11.3825 4.62163C11.5681 4.71545 11.7241 4.8589 11.8331 5.03602C11.9421 5.21315 11.9999 5.41702 12 5.625V18.375C12 18.6734 11.8815 18.9595 11.6705 19.1705C11.4595 19.3815 11.1734 19.5 10.875 19.5ZM15 15.75C14.872 15.75 14.7462 15.7172 14.6344 15.6548C14.5227 15.5924 14.4288 15.5024 14.3617 15.3935C14.2945 15.2845 14.2564 15.1602 14.2509 15.0323C14.2453 14.9044 14.2726 14.7773 14.3302 14.663C14.775 13.7784 15.0005 12.8817 15.0005 12C15.0005 11.0916 14.782 10.2216 14.3325 9.34078C14.2464 9.1641 14.233 8.96068 14.2954 8.77427C14.3577 8.58787 14.4907 8.43339 14.6658 8.34407C14.8409 8.25474 15.0441 8.23772 15.2316 8.29666C15.4191 8.3556 15.5759 8.48579 15.6684 8.65922C16.2277 9.75562 16.5 10.8487 16.5 12C16.5 13.1184 16.2187 14.2411 15.6703 15.337C15.6078 15.4612 15.5121 15.5656 15.3937 15.6385C15.2753 15.7115 15.139 15.7501 15 15.75Z" fill="#1E90FF"/>
<path d="M17.25 18C17.1183 18 16.989 17.9654 16.8749 17.8996C16.7609 17.8338 16.6662 17.7391 16.6004 17.6251C16.5345 17.5111 16.4998 17.3817 16.4998 17.25C16.4998 17.1184 16.5345 16.989 16.6003 16.875C17.4867 15.3323 18 14.0395 18 12C18 9.92953 17.4877 8.64562 16.6022 7.12781C16.5051 6.95617 16.4795 6.75319 16.5309 6.56281C16.5824 6.37243 16.7068 6.20998 16.8771 6.11063C17.0475 6.01127 17.2501 5.98301 17.4411 6.03197C17.6322 6.08092 17.7962 6.20315 17.8978 6.37219C18.8869 8.06766 19.5 9.60047 19.5 12C19.5 14.3639 18.8878 15.9042 17.9002 17.625C17.8343 17.7391 17.7395 17.8338 17.6254 17.8997C17.5112 17.9655 17.3818 18.0001 17.25 18Z" fill="#1E90FF"/>
<path d="M19.5 20.25C19.3649 20.2499 19.2324 20.2133 19.1164 20.1442C19.0004 20.075 18.9053 19.9758 18.841 19.857C18.7767 19.7382 18.7457 19.6043 18.7512 19.4693C18.7567 19.3344 18.7986 19.2034 18.8723 19.0903C20.1492 17.1314 21 15.1763 21 12C21 8.88281 20.1478 6.90844 18.8677 4.9036C18.8147 4.82049 18.7785 4.72777 18.7614 4.63071C18.7442 4.53365 18.7463 4.43416 18.7676 4.33792C18.7889 4.24168 18.8289 4.15058 18.8854 4.06981C18.9419 3.98904 19.0138 3.92019 19.0969 3.86719C19.18 3.81419 19.2727 3.77808 19.3698 3.76091C19.4668 3.74375 19.5663 3.74587 19.6626 3.76715C19.7588 3.78844 19.8499 3.82847 19.9307 3.88496C20.0114 3.94146 20.0803 4.01331 20.1333 4.09641C21.5536 6.32297 22.5 8.51906 22.5 12C22.5 15.0352 21.8128 17.3264 20.1281 19.9097C20.06 20.0142 19.9669 20.1 19.8572 20.1594C19.7475 20.2189 19.6247 20.25 19.5 20.25Z" fill="#1E90FF"/>
</svg>
